<svg xmlns="http://www.w3.org/2000/svg" fill="none" viewBox="0 0 128 128">
    <path fill-rule="evenodd" clip-rule="evenodd" d="M215.091 8.21196C220.349 2.95393 227.48 0 234.916 0H420.269C427.705 0 434.836 2.95393 440.094 8.21196L552.536 120.653C557.794 125.911 560.748 133.043 560.748 140.479V571.963C560.748 587.447 548.195 600 532.71 600H518.283C510.847 600 503.715 597.046 498.457 591.788L428.773 522.104C423.515 516.846 420.561 509.714 420.561 502.278V471.729C420.561 456.244 408.008 443.692 392.523 443.692H314.311C306.875 443.692 299.743 440.738 294.485 435.48L213.235 354.23C207.977 348.972 205.023 341.84 205.023 334.404V331.542C205.023 316.057 217.576 303.505 233.061 303.505H392.523C408.008 303.505 420.561 290.952 420.561 275.467V168.224C420.561 152.74 408.008 140.187 392.523 140.187H292.984C285.548 140.187 278.416 143.141 273.158 148.399L148.399 273.158C143.141 278.416 140.187 285.548 140.187 292.984V399.226C140.187 406.662 137.233 413.793 131.975 419.051L115.145 435.881C104.196 446.83 86.4433 446.83 75.494 435.881L8.21196 368.599C2.95393 363.341 0 356.21 0 348.774V234.916C0 227.48 2.95393 220.349 8.21196 215.091L215.091 8.21196Z" fill="#82C11B"/>
    <style>
        path { fill: #000; }
        @media (prefers-color-scheme: dark) {
            path { fill: #FFF; }
        }
    </style>
</svg>

